<mxfile host="app.diagrams.net" modified="2024-05-30T08:28:38.477Z" agent="Mozilla/5.0 (Windows NT 10.0; Win64; x64) AppleWebKit/537.36 (KHTML, like Gecko) Chrome/125.0.0.0 Safari/537.36" version="24.4.10" etag="9mDWN-rlJbJHRSEdYVcu" type="github">
  <diagram name="PaginÄƒ-1" id="sLzx4GGvLke_HAknfn0S">
    <mxGraphModel>
      <root>
        <mxCell id="0" />
        <mxCell id="1" parent="0" />
      </root>
    </mxGraphModel>
  </diagram>
</mxfile>
